<svg width="24" height="24" viewBox="0 0 24 24" fill="none" xmlns="http://www.w3.org/2000/svg">
<mask id="mask0_674_2068" style="mask-type:alpha" maskUnits="userSpaceOnUse" x="0" y="0" width="24" height="24">
<rect width="24" height="24" fill="#D9D9D9"/>
</mask>
<g mask="url(#mask0_674_2068)">
<path d="M12 13.1668L6.86664 18.3002C6.70554 18.4613 6.5111 18.5418 6.28331 18.5418C6.05555 18.5418 5.8611 18.4613 5.69999 18.3002C5.53887 18.1391 5.45831 17.9446 5.45831 17.7168C5.45831 17.4891 5.53887 17.2946 5.69999 17.1335L10.8333 12.0002L5.69999 6.86682C5.53887 6.70572 5.45831 6.51128 5.45831 6.2835C5.45831 6.05573 5.53887 5.86129 5.69999 5.70017C5.8611 5.53905 6.05555 5.4585 6.28331 5.4585C6.5111 5.4585 6.70554 5.53905 6.86664 5.70017L12 10.8335L17.1333 5.70017C17.2944 5.53905 17.4889 5.4585 17.7167 5.4585C17.9444 5.4585 18.1389 5.53905 18.3 5.70017C18.4611 5.86129 18.5417 6.05573 18.5417 6.2835C18.5417 6.51128 18.4611 6.70572 18.3 6.86682L13.1666 12.0002L18.3 17.1335C18.4611 17.2946 18.5417 17.4891 18.5417 17.7168C18.5417 17.9446 18.4611 18.1391 18.3 18.3002C18.1389 18.4613 17.9444 18.5418 17.7167 18.5418C17.4889 18.5418 17.2944 18.4613 17.1333 18.3002L12 13.1668Z" fill="#260D26"/>
</g>
</svg>
