<svg width="20" height="21" viewBox="0 0 20 21" fill="none" xmlns="http://www.w3.org/2000/svg">
<g id="new_releases">
<mask id="mask0_533_706" style="mask-type:alpha" maskUnits="userSpaceOnUse" x="0" y="0" width="20" height="21">
<rect id="Bounding box" y="0.12207" width="20" height="20" fill="#D9D9D9"/>
</mask>
<g mask="url(#mask0_533_706)">
<path id="new_releases_2" d="M9.12533 10.7054L7.91699 9.51788C7.76421 9.3651 7.57324 9.28871 7.34408 9.28871C7.11491 9.28871 6.91699 9.37205 6.75033 9.53871C6.59755 9.69149 6.52116 9.88594 6.52116 10.122C6.52116 10.3582 6.59755 10.5526 6.75033 10.7054L8.54199 12.497C8.70866 12.6637 8.9031 12.747 9.12533 12.747C9.34755 12.747 9.54199 12.6637 9.70866 12.497L13.2503 8.95538C13.417 8.78871 13.4969 8.59427 13.4899 8.37205C13.483 8.14983 13.4031 7.95538 13.2503 7.78871C13.0837 7.62205 12.8857 7.53524 12.6566 7.5283C12.4274 7.52135 12.2295 7.60121 12.0628 7.76788L9.12533 10.7054ZM6.79199 18.2471L5.58366 16.2054L3.29199 15.7054C3.08366 15.6637 2.91699 15.5561 2.79199 15.3825C2.66699 15.2089 2.61838 15.0179 2.64616 14.8095L2.87533 12.4554L1.31283 10.6637C1.17394 10.5109 1.10449 10.3304 1.10449 10.122C1.10449 9.91371 1.17394 9.73316 1.31283 9.58038L2.87533 7.78871L2.64616 5.43455C2.61838 5.22621 2.66699 5.03524 2.79199 4.86163C2.91699 4.68802 3.08366 4.58038 3.29199 4.53871L5.58366 4.03871L6.79199 1.99705C6.9031 1.81649 7.05588 1.69496 7.25033 1.63246C7.44477 1.56996 7.63921 1.58038 7.83366 1.66371L10.0003 2.58038L12.167 1.66371C12.3614 1.58038 12.5559 1.56996 12.7503 1.63246C12.9448 1.69496 13.0975 1.81649 13.2087 1.99705L14.417 4.03871L16.7087 4.53871C16.917 4.58038 17.0837 4.68802 17.2087 4.86163C17.3337 5.03524 17.3823 5.22621 17.3545 5.43455L17.1253 7.78871L18.6878 9.58038C18.8267 9.73316 18.8962 9.91371 18.8962 10.122C18.8962 10.3304 18.8267 10.5109 18.6878 10.6637L17.1253 12.4554L17.3545 14.8095C17.3823 15.0179 17.3337 15.2089 17.2087 15.3825C17.0837 15.5561 16.917 15.6637 16.7087 15.7054L14.417 16.2054L13.2087 18.2471C13.0975 18.4276 12.9448 18.5491 12.7503 18.6116C12.5559 18.6741 12.3614 18.6637 12.167 18.5804L10.0003 17.6637L7.83366 18.5804C7.63921 18.6637 7.44477 18.6741 7.25033 18.6116C7.05588 18.5491 6.9031 18.4276 6.79199 18.2471Z" fill="white"/>
</g>
</g>
</svg>
