<svg width="20" height="21" viewBox="0 0 20 21" fill="none" xmlns="http://www.w3.org/2000/svg">
<g id="cached">
<mask id="mask0_533_713" style="mask-type:alpha" maskUnits="userSpaceOnUse" x="0" y="0" width="20" height="21">
<rect id="Bounding box" y="0.12207" width="20" height="20" fill="#D9D9D9"/>
</mask>
<g mask="url(#mask0_533_713)">
<path id="cached_2" d="M10.0409 16.7889C8.17982 16.7889 6.59649 16.1431 5.29093 14.8514C3.98538 13.5597 3.3326 11.9833 3.3326 10.1222V9.9764L2.5826 10.7264C2.42982 10.8792 2.23538 10.9556 1.99927 10.9556C1.76316 10.9556 1.56871 10.8792 1.41593 10.7264C1.26316 10.5736 1.18677 10.3792 1.18677 10.1431C1.18677 9.90696 1.26316 9.71251 1.41593 9.55973L3.5826 7.39307C3.74927 7.2264 3.94371 7.14307 4.16593 7.14307C4.38816 7.14307 4.5826 7.2264 4.74927 7.39307L6.91593 9.55973C7.06871 9.71251 7.1451 9.90696 7.1451 10.1431C7.1451 10.3792 7.06871 10.5736 6.91593 10.7264C6.76316 10.8792 6.56871 10.9556 6.3326 10.9556C6.09649 10.9556 5.90204 10.8792 5.74927 10.7264L4.99927 9.9764V10.1222C4.99927 11.5111 5.48885 12.6917 6.46802 13.6639C7.44718 14.6361 8.63816 15.1222 10.0409 15.1222C10.2632 15.1222 10.4819 15.1083 10.6972 15.0806C10.9125 15.0528 11.1243 15.0042 11.3326 14.9347C11.5687 14.8653 11.7909 14.8722 11.9993 14.9556C12.2076 15.0389 12.3673 15.1847 12.4784 15.3931C12.5895 15.6153 12.6 15.834 12.5097 16.0493C12.4194 16.2646 12.2562 16.407 12.0201 16.4764C11.7007 16.5875 11.3743 16.6674 11.0409 16.716C10.7076 16.7646 10.3743 16.7889 10.0409 16.7889ZM9.9576 5.12223C9.73538 5.12223 9.51663 5.13612 9.30135 5.1639C9.08607 5.19168 8.87427 5.24029 8.66593 5.30973C8.42982 5.37918 8.20413 5.37223 7.98885 5.2889C7.77357 5.20557 7.61038 5.05973 7.49927 4.8514C7.38816 4.64307 7.37774 4.43126 7.46802 4.21598C7.55829 4.00071 7.71455 3.85834 7.93677 3.7889C8.2701 3.67779 8.60343 3.59446 8.93677 3.5389C9.2701 3.48334 9.61038 3.45557 9.9576 3.45557C11.8187 3.45557 13.402 4.1014 14.7076 5.39307C16.0132 6.68473 16.6659 8.26112 16.6659 10.1222V10.2681L17.4159 9.51807C17.5687 9.36529 17.7632 9.2889 17.9993 9.2889C18.2354 9.2889 18.4298 9.36529 18.5826 9.51807C18.7354 9.67084 18.8118 9.86529 18.8118 10.1014C18.8118 10.3375 18.7354 10.532 18.5826 10.6847L16.4159 12.8514C16.2493 13.0181 16.0548 13.1014 15.8326 13.1014C15.6104 13.1014 15.4159 13.0181 15.2493 12.8514L13.0826 10.6847C12.9298 10.532 12.8534 10.3375 12.8534 10.1014C12.8534 9.86529 12.9298 9.67084 13.0826 9.51807C13.2354 9.36529 13.4298 9.2889 13.6659 9.2889C13.902 9.2889 14.0965 9.36529 14.2493 9.51807L14.9993 10.2681V10.1222C14.9993 8.73334 14.5097 7.55279 13.5305 6.58057C12.5513 5.60834 11.3604 5.12223 9.9576 5.12223Z" fill="#260D26"/>
</g>
</g>
</svg>
