<svg width="24" height="24" viewBox="0 0 24 24" fill="none" xmlns="http://www.w3.org/2000/svg">
<g id="manage_search">
<mask id="mask0_533_634" style="mask-type:alpha" maskUnits="userSpaceOnUse" x="0" y="0" width="24" height="24">
<rect id="Bounding box" width="24" height="24" fill="#D9D9D9"/>
</mask>
<g mask="url(#mask0_533_634)">
<path id="manage_search_2" d="M3.5 17.9616C3.35833 17.9616 3.23958 17.9136 3.14375 17.8176C3.04792 17.7216 3 17.6027 3 17.4609C3 17.319 3.04792 17.2003 3.14375 17.1048C3.23958 17.0093 3.35833 16.9616 3.5 16.9616H12.0577C12.1993 16.9616 12.3181 17.0095 12.414 17.1055C12.5098 17.2014 12.5577 17.3204 12.5577 17.4622C12.5577 17.6041 12.5098 17.7228 12.414 17.8183C12.3181 17.9138 12.1993 17.9616 12.0577 17.9616H3.5ZM3.5 13.1731C3.35833 13.1731 3.23958 13.1251 3.14375 13.0291C3.04792 12.9332 3 12.8143 3 12.6724C3 12.5306 3.04792 12.4119 3.14375 12.3164C3.23958 12.2208 3.35833 12.1731 3.5 12.1731H6.96153C7.10319 12.1731 7.22194 12.2211 7.31778 12.317C7.41361 12.413 7.46153 12.5319 7.46153 12.6738C7.46153 12.8156 7.41361 12.9343 7.31778 13.0298C7.22194 13.1253 7.10319 13.1731 6.96153 13.1731H3.5ZM3.5 8.38463C3.35833 8.38463 3.23958 8.33664 3.14375 8.24068C3.04792 8.14471 3 8.0258 3 7.88395C3 7.74208 3.04792 7.62339 3.14375 7.52787C3.23958 7.43237 3.35833 7.38463 3.5 7.38463H6.96153C7.10319 7.38463 7.22194 7.4326 7.31778 7.52855C7.41361 7.62452 7.46153 7.74343 7.46153 7.8853C7.46153 8.02715 7.41361 8.14583 7.31778 8.24135C7.22194 8.33687 7.10319 8.38463 6.96153 8.38463H3.5ZM13.9231 15.0192C12.8004 15.0192 11.8435 14.6311 11.0523 13.8548C10.261 13.0785 9.86538 12.1301 9.86538 11.0096C9.86538 9.88911 10.2614 8.94071 11.0536 8.16443C11.8457 7.38814 12.8037 7 13.9276 7C15.0515 7 16.008 7.38814 16.7971 8.16443C17.5862 8.94071 17.9808 9.8859 17.9808 11C17.9808 11.4449 17.9067 11.8792 17.7587 12.3029C17.6106 12.7266 17.3949 13.1128 17.1116 13.4616L20.6462 16.9385C20.7526 17.0278 20.8058 17.1415 20.8058 17.2795C20.8058 17.4175 20.7526 17.5398 20.6462 17.6462C20.5568 17.7398 20.4432 17.7866 20.3051 17.7866C20.1671 17.7866 20.0449 17.7398 19.9385 17.6462L16.4039 14.1692C16.0423 14.4397 15.6497 14.649 15.226 14.7971C14.8022 14.9452 14.3679 15.0192 13.9231 15.0192ZM13.9231 14.0192C14.7724 14.0192 15.4944 13.7276 16.089 13.1442C16.6835 12.5609 16.9808 11.8494 16.9808 11.0096C16.9808 10.1699 16.6835 9.45833 16.089 8.875C15.4944 8.29167 14.7724 8 13.9231 8C13.0737 8 12.3518 8.29167 11.7572 8.875C11.1627 9.45833 10.8654 10.1699 10.8654 11.0096C10.8654 11.8494 11.1627 12.5609 11.7572 13.1442C12.3518 13.7276 13.0737 14.0192 13.9231 14.0192Z" fill="#260D26"/>
</g>
</g>
</svg>
